# xmcd
#
# Track frame offsets:
#	150
#	15835
#	31829
#	45555
#	60000
#	74919
#	93445
#	109935
#	124556
#	138908
#	158399
#	174090
#	191080
#	208452
#	223136
#	238872
#	256212
#	272282
#	286292
#	304396
#	318433
#	335221
#
# Disc length: 4700 seconds
#
# Revision: 1
# Processed by: cddbd v1.5.2PL0 Copyright (c) Steve Scherf et al.
# Submitted via: audiograbber 1.83.01
#
DISCID=3c125a16
DTITLE=William Ray - Little Bitty Hillbilly Band
DYEAR=2016
DGENRE=Country
TTITLE0=Little Bitty Hillbilly Band
TTITLE1=Not For Anything
TTITLE2=Sixteenth Avenue
TTITLE3=The Legend Of Billy McCann
TTITLE4=I Cab´t Belive My Lies
TTITLE5=Don´t Burn Your Bridges
TTITLE6=Better Half
TTITLE7=Hard To Swallow Memories
TTITLE8=Mister TSA
TTITLE9=Don´t Tell Me ´Bout Lonely
TTITLE10=Cold Shoulders
TTITLE11=California Cowboy
TTITLE12=Letting Go
TTITLE13=Text Message
TTITLE14=Like I Love You
TTITLE15=That John Deer Machine
TTITLE16=Light At The End Of The Tunnel
TTITLE17=Who Knew
TTITLE18=Wagon Trails and Waggin´ Tails
TTITLE19=Every Bone In My Heart
TTITLE20=The Last Man Standing
TTITLE21=Life´s Been Good To Me
EXTD=
EXTT0=
EXTT1=
EXTT2=
EXTT3=
EXTT4=
EXTT5=
EXTT6=
EXTT7=
EXTT8=
EXTT9=
EXTT10=
EXTT11=
EXTT12=
EXTT13=
EXTT14=
EXTT15=
EXTT16=
EXTT17=
EXTT18=
EXTT19=
EXTT20=
EXTT21=
PLAYORDER=
